%TF.GenerationSoftware,KiCad,Pcbnew,(6.0.4)*%
%TF.CreationDate,2022-05-01T14:08:42+08:00*%
%TF.ProjectId,OneKey,4f6e654b-6579-42e6-9b69-6361645f7063,rev?*%
%TF.SameCoordinates,Original*%
%TF.FileFunction,Legend,Top*%
%TF.FilePolarity,Positive*%
%FSLAX46Y46*%
G04 Gerber Fmt 4.6, Leading zero omitted, Abs format (unit mm)*
G04 Created by KiCad (PCBNEW (6.0.4)) date 2022-05-01 14:08:42*
%MOMM*%
%LPD*%
G01*
G04 APERTURE LIST*
%ADD10C,0.150000*%
%ADD11C,0.120000*%
G04 APERTURE END LIST*
D10*
X146685333Y-79462380D02*
X146685333Y-80176666D01*
X146647238Y-80319523D01*
X146571047Y-80414761D01*
X146456761Y-80462380D01*
X146380571Y-80462380D01*
X147447238Y-80462380D02*
X147066285Y-80462380D01*
X147066285Y-79462380D01*
X148171047Y-80367142D02*
X148132952Y-80414761D01*
X148018666Y-80462380D01*
X147942476Y-80462380D01*
X147828190Y-80414761D01*
X147752000Y-80319523D01*
X147713904Y-80224285D01*
X147675809Y-80033809D01*
X147675809Y-79890952D01*
X147713904Y-79700476D01*
X147752000Y-79605238D01*
X147828190Y-79510000D01*
X147942476Y-79462380D01*
X148018666Y-79462380D01*
X148132952Y-79510000D01*
X148171047Y-79557619D01*
X148742476Y-79462380D02*
X148742476Y-80176666D01*
X148704380Y-80319523D01*
X148628190Y-80414761D01*
X148513904Y-80462380D01*
X148437714Y-80462380D01*
X149504380Y-80462380D02*
X149123428Y-80462380D01*
X149123428Y-79462380D01*
X150228190Y-80367142D02*
X150190095Y-80414761D01*
X150075809Y-80462380D01*
X149999619Y-80462380D01*
X149885333Y-80414761D01*
X149809142Y-80319523D01*
X149771047Y-80224285D01*
X149732952Y-80033809D01*
X149732952Y-79890952D01*
X149771047Y-79700476D01*
X149809142Y-79605238D01*
X149885333Y-79510000D01*
X149999619Y-79462380D01*
X150075809Y-79462380D01*
X150190095Y-79510000D01*
X150228190Y-79557619D01*
X150799619Y-79462380D02*
X150799619Y-80176666D01*
X150761523Y-80319523D01*
X150685333Y-80414761D01*
X150571047Y-80462380D01*
X150494857Y-80462380D01*
X151561523Y-80462380D02*
X151180571Y-80462380D01*
X151180571Y-79462380D01*
X152285333Y-80367142D02*
X152247238Y-80414761D01*
X152132952Y-80462380D01*
X152056761Y-80462380D01*
X151942476Y-80414761D01*
X151866285Y-80319523D01*
X151828190Y-80224285D01*
X151790095Y-80033809D01*
X151790095Y-79890952D01*
X151828190Y-79700476D01*
X151866285Y-79605238D01*
X151942476Y-79510000D01*
X152056761Y-79462380D01*
X152132952Y-79462380D01*
X152247238Y-79510000D01*
X152285333Y-79557619D01*
%TO.C,0.1u*%
X152758857Y-93046428D02*
X152758857Y-92970238D01*
X152816000Y-92894047D01*
X152873142Y-92855952D01*
X152987428Y-92817857D01*
X153216000Y-92779761D01*
X153501714Y-92779761D01*
X153730285Y-92817857D01*
X153844571Y-92855952D01*
X153901714Y-92894047D01*
X153958857Y-92970238D01*
X153958857Y-93046428D01*
X153901714Y-93122619D01*
X153844571Y-93160714D01*
X153730285Y-93198809D01*
X153501714Y-93236904D01*
X153216000Y-93236904D01*
X152987428Y-93198809D01*
X152873142Y-93160714D01*
X152816000Y-93122619D01*
X152758857Y-93046428D01*
X153844571Y-92436904D02*
X153901714Y-92398809D01*
X153958857Y-92436904D01*
X153901714Y-92475000D01*
X153844571Y-92436904D01*
X153958857Y-92436904D01*
X153958857Y-91636904D02*
X153958857Y-92094047D01*
X153958857Y-91865476D02*
X152758857Y-91865476D01*
X152930285Y-91941666D01*
X153044571Y-92017857D01*
X153101714Y-92094047D01*
X153158857Y-90951190D02*
X153958857Y-90951190D01*
X153158857Y-91294047D02*
X153787428Y-91294047D01*
X153901714Y-91255952D01*
X153958857Y-91179761D01*
X153958857Y-91065476D01*
X153901714Y-90989285D01*
X153844571Y-90951190D01*
%TO.C,1.5K*%
X152053857Y-92817857D02*
X152053857Y-93275000D01*
X152053857Y-93046428D02*
X150853857Y-93046428D01*
X151025285Y-93122619D01*
X151139571Y-93198809D01*
X151196714Y-93275000D01*
X151939571Y-92475000D02*
X151996714Y-92436904D01*
X152053857Y-92475000D01*
X151996714Y-92513095D01*
X151939571Y-92475000D01*
X152053857Y-92475000D01*
X150853857Y-91713095D02*
X150853857Y-92094047D01*
X151425285Y-92132142D01*
X151368142Y-92094047D01*
X151311000Y-92017857D01*
X151311000Y-91827380D01*
X151368142Y-91751190D01*
X151425285Y-91713095D01*
X151539571Y-91675000D01*
X151825285Y-91675000D01*
X151939571Y-91713095D01*
X151996714Y-91751190D01*
X152053857Y-91827380D01*
X152053857Y-92017857D01*
X151996714Y-92094047D01*
X151939571Y-92132142D01*
X152053857Y-91332142D02*
X150853857Y-91332142D01*
X152053857Y-90875000D02*
X151368142Y-91217857D01*
X150853857Y-90875000D02*
X151539571Y-91332142D01*
%TO.C,0.1u*%
X144503857Y-93046428D02*
X144503857Y-92970238D01*
X144561000Y-92894047D01*
X144618142Y-92855952D01*
X144732428Y-92817857D01*
X144961000Y-92779761D01*
X145246714Y-92779761D01*
X145475285Y-92817857D01*
X145589571Y-92855952D01*
X145646714Y-92894047D01*
X145703857Y-92970238D01*
X145703857Y-93046428D01*
X145646714Y-93122619D01*
X145589571Y-93160714D01*
X145475285Y-93198809D01*
X145246714Y-93236904D01*
X144961000Y-93236904D01*
X144732428Y-93198809D01*
X144618142Y-93160714D01*
X144561000Y-93122619D01*
X144503857Y-93046428D01*
X145589571Y-92436904D02*
X145646714Y-92398809D01*
X145703857Y-92436904D01*
X145646714Y-92475000D01*
X145589571Y-92436904D01*
X145703857Y-92436904D01*
X145703857Y-91636904D02*
X145703857Y-92094047D01*
X145703857Y-91865476D02*
X144503857Y-91865476D01*
X144675285Y-91941666D01*
X144789571Y-92017857D01*
X144846714Y-92094047D01*
X144903857Y-90951190D02*
X145703857Y-90951190D01*
X144903857Y-91294047D02*
X145532428Y-91294047D01*
X145646714Y-91255952D01*
X145703857Y-91179761D01*
X145703857Y-91065476D01*
X145646714Y-90989285D01*
X145589571Y-90951190D01*
%TO.C,10K*%
X147862857Y-92500380D02*
X147862857Y-92957523D01*
X147862857Y-92728952D02*
X146662857Y-92728952D01*
X146834285Y-92805142D01*
X146948571Y-92881333D01*
X147005714Y-92957523D01*
X146662857Y-92005142D02*
X146662857Y-91928952D01*
X146720000Y-91852761D01*
X146777142Y-91814666D01*
X146891428Y-91776571D01*
X147120000Y-91738476D01*
X147405714Y-91738476D01*
X147634285Y-91776571D01*
X147748571Y-91814666D01*
X147805714Y-91852761D01*
X147862857Y-91928952D01*
X147862857Y-92005142D01*
X147805714Y-92081333D01*
X147748571Y-92119428D01*
X147634285Y-92157523D01*
X147405714Y-92195619D01*
X147120000Y-92195619D01*
X146891428Y-92157523D01*
X146777142Y-92119428D01*
X146720000Y-92081333D01*
X146662857Y-92005142D01*
X147862857Y-91395619D02*
X146662857Y-91395619D01*
X147862857Y-90938476D02*
X147177142Y-91281333D01*
X146662857Y-90938476D02*
X147348571Y-91395619D01*
D11*
%TO.C,0.1u*%
X154151000Y-88660248D02*
X154151000Y-89182752D01*
X152681000Y-88660248D02*
X152681000Y-89182752D01*
%TO.C,SW1*%
X142367000Y-107648000D02*
X142367000Y-93678000D01*
X156337000Y-93678000D02*
X156337000Y-107648000D01*
X156337000Y-107648000D02*
X142367000Y-107648000D01*
X142367000Y-93678000D02*
X156337000Y-93678000D01*
%TO.C,J3*%
X157166000Y-104454000D02*
X159826000Y-104454000D01*
X158496000Y-91634000D02*
X159826000Y-91634000D01*
X159826000Y-91634000D02*
X159826000Y-92964000D01*
X159826000Y-94234000D02*
X159826000Y-104454000D01*
X157166000Y-94234000D02*
X159826000Y-94234000D01*
X157166000Y-94234000D02*
X157166000Y-104454000D01*
%TO.C,1.5K*%
X152119000Y-89148564D02*
X152119000Y-88694436D01*
X150649000Y-89148564D02*
X150649000Y-88694436D01*
%TO.C,0.1u*%
X146023000Y-88638748D02*
X146023000Y-89161252D01*
X144553000Y-88638748D02*
X144553000Y-89161252D01*
%TO.C,D1*%
X150312000Y-89921500D02*
X150312000Y-87061500D01*
X150312000Y-87061500D02*
X148392000Y-87061500D01*
X148392000Y-87061500D02*
X148392000Y-89921500D01*
%TO.C,J2*%
X141792000Y-91634000D02*
X141792000Y-92964000D01*
X139132000Y-94234000D02*
X141792000Y-94234000D01*
X139132000Y-94234000D02*
X139132000Y-106994000D01*
X139132000Y-106994000D02*
X141792000Y-106994000D01*
X141792000Y-94234000D02*
X141792000Y-106994000D01*
X140462000Y-91634000D02*
X141792000Y-91634000D01*
%TO.C,10K*%
X148055000Y-88672936D02*
X148055000Y-89127064D01*
X146585000Y-88672936D02*
X146585000Y-89127064D01*
%TO.C,J1*%
X154052000Y-80894000D02*
X154052000Y-78894000D01*
X144652000Y-80894000D02*
X144652000Y-78894000D01*
X144652000Y-76994000D02*
X144652000Y-75094000D01*
X154052000Y-75094000D02*
X144652000Y-75094000D01*
X154052000Y-76994000D02*
X154052000Y-75094000D01*
%TD*%
M02*
