%TF.GenerationSoftware,KiCad,Pcbnew,(6.0.4)*%
%TF.CreationDate,2022-05-01T14:08:42+08:00*%
%TF.ProjectId,OneKey,4f6e654b-6579-42e6-9b69-6361645f7063,rev?*%
%TF.SameCoordinates,Original*%
%TF.FileFunction,Copper,L2,Bot*%
%TF.FilePolarity,Positive*%
%FSLAX46Y46*%
G04 Gerber Fmt 4.6, Leading zero omitted, Abs format (unit mm)*
G04 Created by KiCad (PCBNEW (6.0.4)) date 2022-05-01 14:08:42*
%MOMM*%
%LPD*%
G01*
G04 APERTURE LIST*
G04 Aperture macros list*
%AMRoundRect*
0 Rectangle with rounded corners*
0 $1 Rounding radius*
0 $2 $3 $4 $5 $6 $7 $8 $9 X,Y pos of 4 corners*
0 Add a 4 corners polygon primitive as box body*
4,1,4,$2,$3,$4,$5,$6,$7,$8,$9,$2,$3,0*
0 Add four circle primitives for the rounded corners*
1,1,$1+$1,$2,$3*
1,1,$1+$1,$4,$5*
1,1,$1+$1,$6,$7*
1,1,$1+$1,$8,$9*
0 Add four rect primitives between the rounded corners*
20,1,$1+$1,$2,$3,$4,$5,0*
20,1,$1+$1,$4,$5,$6,$7,0*
20,1,$1+$1,$6,$7,$8,$9,0*
20,1,$1+$1,$8,$9,$2,$3,0*%
G04 Aperture macros list end*
%TA.AperFunction,ComponentPad*%
%ADD10C,2.200000*%
%TD*%
%TA.AperFunction,ComponentPad*%
%ADD11R,1.700000X1.700000*%
%TD*%
%TA.AperFunction,ComponentPad*%
%ADD12O,1.700000X1.700000*%
%TD*%
%TA.AperFunction,ComponentPad*%
%ADD13O,1.000000X1.600000*%
%TD*%
%TA.AperFunction,ComponentPad*%
%ADD14O,1.000000X2.100000*%
%TD*%
%TA.AperFunction,SMDPad,CuDef*%
%ADD15R,1.000000X1.000000*%
%TD*%
%TA.AperFunction,SMDPad,CuDef*%
%ADD16RoundRect,0.137500X0.137500X-0.662500X0.137500X0.662500X-0.137500X0.662500X-0.137500X-0.662500X0*%
%TD*%
%TA.AperFunction,ViaPad*%
%ADD17C,0.600000*%
%TD*%
%TA.AperFunction,Conductor*%
%ADD18C,0.500000*%
%TD*%
%TA.AperFunction,Conductor*%
%ADD19C,0.200000*%
%TD*%
G04 APERTURE END LIST*
D10*
%TO.P,SW1,1,1*%
%TO.N,VBUS*%
X151892000Y-95583000D03*
%TO.P,SW1,2,2*%
%TO.N,P1.6*%
X145542000Y-98123000D03*
%TD*%
D11*
%TO.P,J3,1,Pin_1*%
%TO.N,P3.0*%
X158496000Y-92964000D03*
D12*
%TO.P,J3,2,Pin_2*%
%TO.N,P3.1*%
X158496000Y-95504000D03*
%TO.P,J3,3,Pin_3*%
%TO.N,P3.2*%
X158496000Y-98044000D03*
%TO.P,J3,4,Pin_4*%
%TO.N,P3.3*%
X158496000Y-100584000D03*
%TO.P,J3,5,Pin_5*%
%TO.N,P3.4*%
X158496000Y-103124000D03*
%TD*%
D11*
%TO.P,J2,1,Pin_1*%
%TO.N,VBUS*%
X140462000Y-92964000D03*
D12*
%TO.P,J2,2,Pin_2*%
%TO.N,GND*%
X140462000Y-95504000D03*
%TO.P,J2,3,Pin_3*%
%TO.N,RST*%
X140462000Y-98044000D03*
%TO.P,J2,4,Pin_4*%
%TO.N,P1.1*%
X140462000Y-100584000D03*
%TO.P,J2,5,Pin_5*%
%TO.N,P1.6*%
X140462000Y-103124000D03*
%TO.P,J2,6,Pin_6*%
%TO.N,P1.7*%
X140462000Y-105664000D03*
%TD*%
D13*
%TO.P,J1,S1,SHIELD*%
%TO.N,GND*%
X145032000Y-77944000D03*
D14*
X153672000Y-82124000D03*
D13*
X153672000Y-77944000D03*
D14*
X145032000Y-82124000D03*
%TD*%
D15*
%TO.P,D+,1*%
%TO.N,D+*%
X154432000Y-98044000D03*
%TD*%
%TO.P,VCC,1*%
%TO.N,VBUS*%
X153035000Y-98044000D03*
%TD*%
D16*
%TO.P,CH552G,1,P3.2/TxD1_*%
%TO.N,P3.2*%
X154051000Y-92150000D03*
%TO.P,CH552G,2,P1.4*%
%TO.N,UCC1*%
X152781000Y-92150000D03*
%TO.P,CH552G,3,P1.5/MOSI*%
%TO.N,UCC2*%
X151511000Y-92150000D03*
%TO.P,CH552G,4,P1.6/MISO/RxD1_*%
%TO.N,P1.6*%
X150241000Y-92150000D03*
%TO.P,CH552G,5,P1.7/SCK/TxD1*%
%TO.N,P1.7*%
X148971000Y-92150000D03*
%TO.P,CH552G,6,RST*%
%TO.N,RST*%
X147701000Y-92150000D03*
%TO.P,CH552G,7,P3.1/TxD*%
%TO.N,P3.1*%
X146431000Y-92150000D03*
%TO.P,CH552G,8,P3.0/RxD*%
%TO.N,P3.0*%
X145161000Y-92150000D03*
%TO.P,CH552G,9,P1.1*%
%TO.N,P1.1*%
X145161000Y-85650000D03*
%TO.P,CH552G,10,P3.3*%
%TO.N,P3.3*%
X146431000Y-85650000D03*
%TO.P,CH552G,11,P3.4/RxD1_*%
%TO.N,P3.4*%
X147701000Y-85650000D03*
%TO.P,CH552G,12,P3.6/UDP*%
%TO.N,D+*%
X148971000Y-85650000D03*
%TO.P,CH552G,13,P3.7/UDM*%
%TO.N,D-*%
X150241000Y-85650000D03*
%TO.P,CH552G,14,GND*%
%TO.N,GND*%
X151511000Y-85650000D03*
%TO.P,CH552G,15,VCC*%
%TO.N,VBUS*%
X152781000Y-85650000D03*
%TO.P,CH552G,16,V33*%
%TO.N,Net-(C1-Pad2)*%
X154051000Y-85650000D03*
%TD*%
D17*
%TO.N,GND*%
X146304000Y-88900000D03*
X151641980Y-86822000D03*
%TO.N,Net-(C1-Pad2)*%
X154940000Y-88138000D03*
%TO.N,VBUS*%
X151892000Y-84328000D03*
X145796000Y-84328000D03*
%TO.N,UCC1*%
X150876000Y-84582000D03*
%TO.N,D+*%
X148590000Y-84328000D03*
%TO.N,D-*%
X150114000Y-84328000D03*
%TO.N,UCC2*%
X148336000Y-86868000D03*
%TO.N,RST*%
X143671979Y-94996000D03*
%TO.N,P1.6*%
X148391020Y-90944500D03*
%TO.N,P1.7*%
X147828000Y-96520000D03*
%TO.N,P3.0*%
X146452977Y-94339023D03*
%TO.N,P3.1*%
X146855962Y-93589523D03*
%TO.N,P3.2*%
X152149816Y-88891786D03*
%TO.N,P3.3*%
X143256000Y-89408000D03*
X143256000Y-91948000D03*
%TO.N,P3.4*%
X144526000Y-93980000D03*
X151130000Y-104394000D03*
%TD*%
D18*
%TO.N,GND*%
X141761511Y-94204489D02*
X141761511Y-92202000D01*
X151511000Y-86691020D02*
X151641980Y-86822000D01*
X151511000Y-85650000D02*
X151511000Y-86691020D01*
X145063511Y-88900000D02*
X146304000Y-88900000D01*
X141761511Y-92202000D02*
X145063511Y-88900000D01*
X140462000Y-95504000D02*
X141761511Y-94204489D01*
%TO.N,Net-(C1-Pad2)*%
X154940000Y-88138000D02*
X154940000Y-86539000D01*
X154940000Y-86539000D02*
X154051000Y-85650000D01*
%TO.N,VBUS*%
X153035000Y-96726000D02*
X151892000Y-95583000D01*
X150876000Y-81788000D02*
X151892000Y-82804000D01*
X151892000Y-82804000D02*
X151892000Y-84328000D01*
X153035000Y-98044000D02*
X153035000Y-96726000D01*
X152781000Y-85650000D02*
X152781000Y-85217000D01*
X152781000Y-85217000D02*
X151892000Y-84328000D01*
X145796000Y-84328000D02*
X145796000Y-83820000D01*
X147828000Y-81788000D02*
X150876000Y-81788000D01*
X145796000Y-83820000D02*
X147828000Y-81788000D01*
D19*
%TO.N,UCC1*%
X150876000Y-84582000D02*
X150876000Y-88646000D01*
X152781000Y-90551000D02*
X152781000Y-92150000D01*
X150876000Y-88646000D02*
X152781000Y-90551000D01*
%TO.N,D+*%
X152146000Y-93345000D02*
X152146000Y-91313000D01*
X154432000Y-95631000D02*
X153987500Y-95186500D01*
X152146000Y-91313000D02*
X148971000Y-88138000D01*
X154432000Y-98044000D02*
X154432000Y-95631000D01*
X148971000Y-88138000D02*
X148971000Y-85650000D01*
X148971000Y-85650000D02*
X148971000Y-84709000D01*
X153987500Y-95186500D02*
X152146000Y-93345000D01*
X148971000Y-84709000D02*
X148590000Y-84328000D01*
%TO.N,D-*%
X150241000Y-84455000D02*
X150114000Y-84328000D01*
X150241000Y-85650000D02*
X150241000Y-84455000D01*
%TO.N,UCC2*%
X151511000Y-92150000D02*
X151511000Y-91567000D01*
X151511000Y-91567000D02*
X148336000Y-88392000D01*
X148336000Y-88392000D02*
X148336000Y-86868000D01*
D18*
%TO.N,RST*%
X147701000Y-94150970D02*
X146763436Y-95088534D01*
X146763436Y-95088534D02*
X146396534Y-95088534D01*
X147701000Y-92150000D02*
X147701000Y-94150970D01*
X146763436Y-95088534D02*
X143764513Y-95088534D01*
X146396534Y-95088534D02*
X144687466Y-95088534D01*
X143764513Y-95088534D02*
X143671979Y-94996000D01*
%TO.N,P1.1*%
X139162489Y-99284489D02*
X140462000Y-100584000D01*
X145161000Y-85650000D02*
X139162489Y-91648511D01*
X139162489Y-91648511D02*
X139162489Y-99284489D01*
%TO.N,P1.6*%
X148435040Y-90900480D02*
X148391020Y-90944500D01*
X150241000Y-97155000D02*
X149273000Y-98123000D01*
X149273000Y-98123000D02*
X145542000Y-98123000D01*
X150241000Y-94107000D02*
X150241000Y-97155000D01*
X150241000Y-91789829D02*
X149351651Y-90900480D01*
X149351651Y-90900480D02*
X148435040Y-90900480D01*
X150241000Y-92150000D02*
X150241000Y-91789829D01*
X150241000Y-92150000D02*
X150241000Y-94107000D01*
%TO.N,P1.7*%
X148971000Y-92150000D02*
X148971000Y-95377000D01*
X148971000Y-95377000D02*
X147828000Y-96520000D01*
%TO.N,P3.0*%
X145161000Y-92150000D02*
X145161000Y-93388970D01*
X146111053Y-94339023D02*
X146452977Y-94339023D01*
X145161000Y-93388970D02*
X146111053Y-94339023D01*
%TO.N,P3.1*%
X146431000Y-92150000D02*
X146431000Y-93164561D01*
X146431000Y-93164561D02*
X146855962Y-93589523D01*
%TO.N,P3.2*%
X154051000Y-92150000D02*
X154051000Y-90792970D01*
X154051000Y-93599000D02*
X158496000Y-98044000D01*
X154051000Y-90792970D02*
X152149816Y-88891786D01*
X154051000Y-92150000D02*
X154051000Y-93599000D01*
%TO.N,P3.3*%
X142922479Y-92281521D02*
X142922479Y-101221991D01*
X155917479Y-103162521D02*
X158496000Y-100584000D01*
X144863009Y-103162521D02*
X155917479Y-103162521D01*
X146431000Y-86233000D02*
X143256000Y-89408000D01*
X146431000Y-85650000D02*
X146431000Y-86233000D01*
X142922479Y-101221991D02*
X144863009Y-103162521D01*
X143256000Y-91948000D02*
X142922479Y-92281521D01*
%TO.N,P3.4*%
X144272000Y-91339978D02*
X145927993Y-89683985D01*
X144272000Y-93726000D02*
X144526000Y-93980000D01*
X147701000Y-85650000D02*
X147586489Y-85764511D01*
X157226000Y-104394000D02*
X158496000Y-103124000D01*
X147586489Y-88677481D02*
X146579985Y-89683985D01*
X144272000Y-91339978D02*
X144272000Y-93726000D01*
X147586489Y-85764511D02*
X147586489Y-88677481D01*
X145927993Y-89683985D02*
X146579985Y-89683985D01*
X151130000Y-104394000D02*
X157226000Y-104394000D01*
%TD*%
M02*
