%TF.GenerationSoftware,KiCad,Pcbnew,(6.0.4)*%
%TF.CreationDate,2022-05-01T14:08:42+08:00*%
%TF.ProjectId,OneKey,4f6e654b-6579-42e6-9b69-6361645f7063,rev?*%
%TF.SameCoordinates,Original*%
%TF.FileFunction,Soldermask,Top*%
%TF.FilePolarity,Negative*%
%FSLAX46Y46*%
G04 Gerber Fmt 4.6, Leading zero omitted, Abs format (unit mm)*
G04 Created by KiCad (PCBNEW (6.0.4)) date 2022-05-01 14:08:42*
%MOMM*%
%LPD*%
G01*
G04 APERTURE LIST*
G04 Aperture macros list*
%AMRoundRect*
0 Rectangle with rounded corners*
0 $1 Rounding radius*
0 $2 $3 $4 $5 $6 $7 $8 $9 X,Y pos of 4 corners*
0 Add a 4 corners polygon primitive as box body*
4,1,4,$2,$3,$4,$5,$6,$7,$8,$9,$2,$3,0*
0 Add four circle primitives for the rounded corners*
1,1,$1+$1,$2,$3*
1,1,$1+$1,$4,$5*
1,1,$1+$1,$6,$7*
1,1,$1+$1,$8,$9*
0 Add four rect primitives between the rounded corners*
20,1,$1+$1,$2,$3,$4,$5,0*
20,1,$1+$1,$4,$5,$6,$7,0*
20,1,$1+$1,$6,$7,$8,$9,0*
20,1,$1+$1,$8,$9,$2,$3,0*%
G04 Aperture macros list end*
%ADD10RoundRect,0.250000X-0.475000X0.337500X-0.475000X-0.337500X0.475000X-0.337500X0.475000X0.337500X0*%
%ADD11C,4.000000*%
%ADD12C,1.700000*%
%ADD13C,2.200000*%
%ADD14R,1.700000X1.700000*%
%ADD15O,1.700000X1.700000*%
%ADD16RoundRect,0.250000X0.450000X-0.350000X0.450000X0.350000X-0.450000X0.350000X-0.450000X-0.350000X0*%
%ADD17RoundRect,0.250000X-0.450000X0.325000X-0.450000X-0.325000X0.450000X-0.325000X0.450000X0.325000X0*%
%ADD18RoundRect,0.250000X-0.450000X0.350000X-0.450000X-0.350000X0.450000X-0.350000X0.450000X0.350000X0*%
%ADD19C,0.650000*%
%ADD20R,0.600000X1.450000*%
%ADD21R,0.300000X1.450000*%
%ADD22O,1.000000X1.600000*%
%ADD23O,1.000000X2.100000*%
G04 APERTURE END LIST*
D10*
%TO.C,0.1u*%
X153416000Y-87884000D03*
X153416000Y-89959000D03*
%TD*%
D11*
%TO.C,SW1*%
X149352000Y-100663000D03*
D12*
X144272000Y-100663000D03*
X154432000Y-100663000D03*
D13*
X151892000Y-95583000D03*
X145542000Y-98123000D03*
%TD*%
D14*
%TO.C,J3*%
X158496000Y-92964000D03*
D15*
X158496000Y-95504000D03*
X158496000Y-98044000D03*
X158496000Y-100584000D03*
X158496000Y-103124000D03*
%TD*%
D16*
%TO.C,1.5K*%
X151384000Y-89921500D03*
X151384000Y-87921500D03*
%TD*%
D10*
%TO.C,0.1u*%
X145288000Y-87862500D03*
X145288000Y-89937500D03*
%TD*%
D17*
%TO.C,D1*%
X149352000Y-87896500D03*
X149352000Y-89946500D03*
%TD*%
D14*
%TO.C,J2*%
X140462000Y-92964000D03*
D15*
X140462000Y-95504000D03*
X140462000Y-98044000D03*
X140462000Y-100584000D03*
X140462000Y-103124000D03*
X140462000Y-105664000D03*
%TD*%
D18*
%TO.C,10K*%
X147320000Y-87900000D03*
X147320000Y-89900000D03*
%TD*%
D19*
%TO.C,J1*%
X146462000Y-81594000D03*
X152242000Y-81594000D03*
D20*
X152602000Y-83039000D03*
X151802000Y-83039000D03*
D21*
X150602000Y-83039000D03*
X149602000Y-83039000D03*
X149102000Y-83039000D03*
X148102000Y-83039000D03*
D20*
X146902000Y-83039000D03*
X146102000Y-83039000D03*
X146102000Y-83039000D03*
X146902000Y-83039000D03*
D21*
X147602000Y-83039000D03*
X148602000Y-83039000D03*
X150102000Y-83039000D03*
X151102000Y-83039000D03*
D20*
X151802000Y-83039000D03*
X152602000Y-83039000D03*
D22*
X145032000Y-77944000D03*
D23*
X153672000Y-82124000D03*
D22*
X153672000Y-77944000D03*
D23*
X145032000Y-82124000D03*
%TD*%
M02*
