M48
; DRILL file {KiCad (6.0.4)} date Sun May  1 14:08:44 2022
; FORMAT={-:-/ absolute / inch / decimal}
; #@! TF.CreationDate,2022-05-01T14:08:44+08:00
; #@! TF.GenerationSoftware,Kicad,Pcbnew,(6.0.4)
; #@! TF.FileFunction,Plated,1,2,PTH
FMAT,2
INCH
; #@! TA.AperFunction,Plated,PTH,ViaDrill
T1C0.0157
; #@! TA.AperFunction,Plated,PTH,ComponentDrill
T2C0.0236
; #@! TA.AperFunction,Plated,PTH,ComponentDrill
T3C0.0394
; #@! TA.AperFunction,Plated,PTH,ComponentDrill
T4C0.0591
%
G90
G05
T1
X5.64Y-3.52
X5.64Y-3.62
X5.6564Y-3.74
X5.69Y-3.7
X5.74Y-3.32
X5.76Y-3.5
X5.7659Y-3.7141
X5.7817Y-3.6846
X5.82Y-3.8
X5.84Y-3.42
X5.8422Y-3.5805
X5.85Y-3.32
X5.91Y-3.32
X5.94Y-3.33
X5.95Y-4.11
X5.9702Y-3.4182
X5.98Y-3.32
X5.9902Y-3.4997
X6.1Y-3.47
T3
X5.53Y-3.66
X5.53Y-3.76
X5.53Y-3.86
X5.53Y-3.96
X5.53Y-4.06
X5.53Y-4.16
X6.24Y-3.66
X6.24Y-3.76
X6.24Y-3.86
X6.24Y-3.96
X6.24Y-4.06
T4
X5.73Y-3.8631
X5.98Y-3.7631
T2
G00X5.7099Y-3.0805
M15
G01X5.7099Y-3.0569
M16
G05
G00X5.7099Y-3.2549
M15
G01X5.7099Y-3.2116
M16
G05
G00X6.0501Y-3.0805
M15
G01X6.0501Y-3.0569
M16
G05
G00X6.0501Y-3.2549
M15
G01X6.0501Y-3.2116
M16
G05
T0
M30
