%TF.GenerationSoftware,KiCad,Pcbnew,(6.0.4)*%
%TF.CreationDate,2022-05-01T14:08:42+08:00*%
%TF.ProjectId,OneKey,4f6e654b-6579-42e6-9b69-6361645f7063,rev?*%
%TF.SameCoordinates,Original*%
%TF.FileFunction,Soldermask,Bot*%
%TF.FilePolarity,Negative*%
%FSLAX46Y46*%
G04 Gerber Fmt 4.6, Leading zero omitted, Abs format (unit mm)*
G04 Created by KiCad (PCBNEW (6.0.4)) date 2022-05-01 14:08:42*
%MOMM*%
%LPD*%
G01*
G04 APERTURE LIST*
G04 Aperture macros list*
%AMRoundRect*
0 Rectangle with rounded corners*
0 $1 Rounding radius*
0 $2 $3 $4 $5 $6 $7 $8 $9 X,Y pos of 4 corners*
0 Add a 4 corners polygon primitive as box body*
4,1,4,$2,$3,$4,$5,$6,$7,$8,$9,$2,$3,0*
0 Add four circle primitives for the rounded corners*
1,1,$1+$1,$2,$3*
1,1,$1+$1,$4,$5*
1,1,$1+$1,$6,$7*
1,1,$1+$1,$8,$9*
0 Add four rect primitives between the rounded corners*
20,1,$1+$1,$2,$3,$4,$5,0*
20,1,$1+$1,$4,$5,$6,$7,0*
20,1,$1+$1,$6,$7,$8,$9,0*
20,1,$1+$1,$8,$9,$2,$3,0*%
G04 Aperture macros list end*
%ADD10C,4.000000*%
%ADD11C,1.700000*%
%ADD12C,2.200000*%
%ADD13R,1.700000X1.700000*%
%ADD14O,1.700000X1.700000*%
%ADD15C,0.650000*%
%ADD16O,1.000000X1.600000*%
%ADD17O,1.000000X2.100000*%
%ADD18R,1.000000X1.000000*%
%ADD19RoundRect,0.137500X0.137500X-0.662500X0.137500X0.662500X-0.137500X0.662500X-0.137500X-0.662500X0*%
G04 APERTURE END LIST*
D10*
%TO.C,SW1*%
X149352000Y-100663000D03*
D11*
X144272000Y-100663000D03*
X154432000Y-100663000D03*
D12*
X151892000Y-95583000D03*
X145542000Y-98123000D03*
%TD*%
D13*
%TO.C,J3*%
X158496000Y-92964000D03*
D14*
X158496000Y-95504000D03*
X158496000Y-98044000D03*
X158496000Y-100584000D03*
X158496000Y-103124000D03*
%TD*%
D13*
%TO.C,J2*%
X140462000Y-92964000D03*
D14*
X140462000Y-95504000D03*
X140462000Y-98044000D03*
X140462000Y-100584000D03*
X140462000Y-103124000D03*
X140462000Y-105664000D03*
%TD*%
D15*
%TO.C,J1*%
X146462000Y-81594000D03*
X152242000Y-81594000D03*
D16*
X145032000Y-77944000D03*
D17*
X153672000Y-82124000D03*
D16*
X153672000Y-77944000D03*
D17*
X145032000Y-82124000D03*
%TD*%
D18*
%TO.C,D+*%
X154432000Y-98044000D03*
%TD*%
%TO.C,VCC*%
X153035000Y-98044000D03*
%TD*%
D19*
%TO.C,CH552G*%
X154051000Y-92150000D03*
X152781000Y-92150000D03*
X151511000Y-92150000D03*
X150241000Y-92150000D03*
X148971000Y-92150000D03*
X147701000Y-92150000D03*
X146431000Y-92150000D03*
X145161000Y-92150000D03*
X145161000Y-85650000D03*
X146431000Y-85650000D03*
X147701000Y-85650000D03*
X148971000Y-85650000D03*
X150241000Y-85650000D03*
X151511000Y-85650000D03*
X152781000Y-85650000D03*
X154051000Y-85650000D03*
%TD*%
M02*
