%TF.GenerationSoftware,KiCad,Pcbnew,(5.1.10)-1*%
%TF.CreationDate,2021-07-31T00:05:09+08:00*%
%TF.ProjectId,ESP_Keychain,4553505f-4b65-4796-9368-61696e2e6b69,rev?*%
%TF.SameCoordinates,Original*%
%TF.FileFunction,Soldermask,Top*%
%TF.FilePolarity,Negative*%
%FSLAX46Y46*%
G04 Gerber Fmt 4.6, Leading zero omitted, Abs format (unit mm)*
G04 Created by KiCad (PCBNEW (5.1.10)-1) date 2021-07-31 00:05:09*
%MOMM*%
%LPD*%
G01*
G04 APERTURE LIST*
%ADD10R,1.500000X2.000000*%
%ADD11R,3.800000X2.000000*%
%ADD12R,3.700000X3.700000*%
%ADD13R,1.590000X0.770000*%
%ADD14O,1.700000X1.700000*%
%ADD15R,1.700000X1.700000*%
%ADD16C,1.100000*%
%ADD17O,1.900000X3.500000*%
%ADD18R,1.100000X2.500000*%
G04 APERTURE END LIST*
%TO.C,R4*%
G36*
G01*
X115500999Y-76600000D02*
X116401001Y-76600000D01*
G75*
G02*
X116651000Y-76849999I0J-249999D01*
G01*
X116651000Y-77550001D01*
G75*
G02*
X116401001Y-77800000I-249999J0D01*
G01*
X115500999Y-77800000D01*
G75*
G02*
X115251000Y-77550001I0J249999D01*
G01*
X115251000Y-76849999D01*
G75*
G02*
X115500999Y-76600000I249999J0D01*
G01*
G37*
G36*
G01*
X115500999Y-74600000D02*
X116401001Y-74600000D01*
G75*
G02*
X116651000Y-74849999I0J-249999D01*
G01*
X116651000Y-75550001D01*
G75*
G02*
X116401001Y-75800000I-249999J0D01*
G01*
X115500999Y-75800000D01*
G75*
G02*
X115251000Y-75550001I0J249999D01*
G01*
X115251000Y-74849999D01*
G75*
G02*
X115500999Y-74600000I249999J0D01*
G01*
G37*
%TD*%
%TO.C,D1*%
G36*
G01*
X113353001Y-75759000D02*
X112452999Y-75759000D01*
G75*
G02*
X112203000Y-75509001I0J249999D01*
G01*
X112203000Y-74858999D01*
G75*
G02*
X112452999Y-74609000I249999J0D01*
G01*
X113353001Y-74609000D01*
G75*
G02*
X113603000Y-74858999I0J-249999D01*
G01*
X113603000Y-75509001D01*
G75*
G02*
X113353001Y-75759000I-249999J0D01*
G01*
G37*
G36*
G01*
X113353001Y-77809000D02*
X112452999Y-77809000D01*
G75*
G02*
X112203000Y-77559001I0J249999D01*
G01*
X112203000Y-76908999D01*
G75*
G02*
X112452999Y-76659000I249999J0D01*
G01*
X113353001Y-76659000D01*
G75*
G02*
X113603000Y-76908999I0J-249999D01*
G01*
X113603000Y-77559001D01*
G75*
G02*
X113353001Y-77809000I-249999J0D01*
G01*
G37*
%TD*%
D10*
%TO.C,U3*%
X105091200Y-82347200D03*
X109691200Y-82347200D03*
X107391200Y-82347200D03*
D11*
X107391200Y-76047200D03*
%TD*%
D12*
%TO.C,U1*%
X111091600Y-68915600D03*
D13*
X115301600Y-63265600D03*
X115301600Y-64365600D03*
X115301600Y-65465600D03*
X115301600Y-66565600D03*
X115301600Y-67665600D03*
X115301600Y-68765600D03*
X115301600Y-69865600D03*
X115301600Y-70965600D03*
X115301600Y-72065600D03*
X105881600Y-72065600D03*
X105881600Y-70965600D03*
X105881600Y-69865600D03*
X105881600Y-68765600D03*
X105881600Y-67665600D03*
X105881600Y-66565600D03*
X105881600Y-65465600D03*
X105881600Y-64365600D03*
X105881600Y-63265600D03*
%TD*%
%TO.C,R3*%
G36*
G01*
X114662000Y-79559999D02*
X114662000Y-80460001D01*
G75*
G02*
X114412001Y-80710000I-249999J0D01*
G01*
X113711999Y-80710000D01*
G75*
G02*
X113462000Y-80460001I0J249999D01*
G01*
X113462000Y-79559999D01*
G75*
G02*
X113711999Y-79310000I249999J0D01*
G01*
X114412001Y-79310000D01*
G75*
G02*
X114662000Y-79559999I0J-249999D01*
G01*
G37*
G36*
G01*
X116662000Y-79559999D02*
X116662000Y-80460001D01*
G75*
G02*
X116412001Y-80710000I-249999J0D01*
G01*
X115711999Y-80710000D01*
G75*
G02*
X115462000Y-80460001I0J249999D01*
G01*
X115462000Y-79559999D01*
G75*
G02*
X115711999Y-79310000I249999J0D01*
G01*
X116412001Y-79310000D01*
G75*
G02*
X116662000Y-79559999I0J-249999D01*
G01*
G37*
%TD*%
D14*
%TO.C,J3*%
X119380000Y-81635600D03*
X119380000Y-79095600D03*
X119380000Y-76555600D03*
X119380000Y-74015600D03*
X119380000Y-71475600D03*
X119380000Y-68935600D03*
X119380000Y-66395600D03*
D15*
X119380000Y-63855600D03*
%TD*%
D14*
%TO.C,J2*%
X101600000Y-81635600D03*
X101600000Y-79095600D03*
X101600000Y-76555600D03*
X101600000Y-74015600D03*
X101600000Y-71475600D03*
X101600000Y-68935600D03*
X101600000Y-66395600D03*
D15*
X101600000Y-63855600D03*
%TD*%
D16*
%TO.C,J1*%
X108190000Y-88350000D03*
X112790000Y-88350000D03*
D17*
X104790000Y-88350000D03*
X116190000Y-88350000D03*
D18*
X106990000Y-85600000D03*
X113990000Y-85600000D03*
X109490000Y-85600000D03*
X111490000Y-85600000D03*
%TD*%
%TO.C,C1*%
G36*
G01*
X114612000Y-81871800D02*
X114612000Y-82821800D01*
G75*
G02*
X114362000Y-83071800I-250000J0D01*
G01*
X113687000Y-83071800D01*
G75*
G02*
X113437000Y-82821800I0J250000D01*
G01*
X113437000Y-81871800D01*
G75*
G02*
X113687000Y-81621800I250000J0D01*
G01*
X114362000Y-81621800D01*
G75*
G02*
X114612000Y-81871800I0J-250000D01*
G01*
G37*
G36*
G01*
X116687000Y-81871800D02*
X116687000Y-82821800D01*
G75*
G02*
X116437000Y-83071800I-250000J0D01*
G01*
X115762000Y-83071800D01*
G75*
G02*
X115512000Y-82821800I0J250000D01*
G01*
X115512000Y-81871800D01*
G75*
G02*
X115762000Y-81621800I250000J0D01*
G01*
X116437000Y-81621800D01*
G75*
G02*
X116687000Y-81871800I0J-250000D01*
G01*
G37*
%TD*%
M02*
