M48
; DRILL file {KiCad (5.1.10)-1} date 07/31/21 00:05:11
; FORMAT={-:-/ absolute / inch / decimal}
; #@! TF.CreationDate,2021-07-31T00:05:11+08:00
; #@! TF.GenerationSoftware,Kicad,Pcbnew,(5.1.10)-1
; #@! TF.FileFunction,Plated,1,2,PTH
FMAT,2
INCH
T1C0.0118
T2C0.0157
T3C0.0354
T4C0.0394
%
G90
G05
T1
X4.0913Y-2.42
T2
X4.305Y-2.825
X4.465Y-2.885
X4.54Y-3.305
X4.595Y-2.705
X4.605Y-2.75
X4.61Y-2.62
X4.615Y-3.315
T4
X4.0Y-2.514
X4.0Y-2.614
X4.0Y-2.714
X4.0Y-2.814
X4.0Y-2.914
X4.0Y-3.014
X4.0Y-3.114
X4.0Y-3.214
X4.7Y-2.514
X4.7Y-2.614
X4.7Y-2.714
X4.7Y-2.814
X4.7Y-2.914
X4.7Y-3.014
X4.7Y-3.114
X4.7Y-3.214
T3
G00X4.1256Y-3.4469
M15
G01X4.1256Y-3.5098
M16
G05
G00X4.5744Y-3.4469
M15
G01X4.5744Y-3.5098
M16
G05
T0
M30
